G04 Layer_Color=16711935*
%FSLAX24Y24*%
%MOIN*%
G70*
G01*
G75*
%ADD99R,0.0474X0.0631*%
%ADD100R,0.1458X0.0710*%
%ADD101C,0.0867*%
%ADD102C,0.1143*%
%ADD103C,0.1261*%
%ADD104R,0.0867X0.0867*%
%ADD105C,0.1182*%
%ADD106R,0.1182X0.1182*%
%ADD107C,0.1277*%
%ADD108R,0.1277X0.1277*%
%ADD109C,0.1458*%
%ADD110R,0.1261X0.1261*%
%ADD111C,0.0080*%
%ADD112R,0.0777X0.1280*%
%ADD113O,0.0777X0.1280*%
%ADD114C,0.1104*%
%ADD115R,0.0552X0.0552*%
%ADD116C,0.0552*%
%ADD117R,0.0867X0.0867*%
%ADD118R,0.0710X0.0710*%
%ADD119C,0.0710*%
%ADD120R,0.1261X0.1261*%
%ADD121C,0.1045*%
%ADD122R,0.1045X0.1045*%
%ADD123C,0.2580*%
%ADD124C,0.0580*%
%ADD125R,0.0375X0.0474*%
%ADD126R,0.0926X0.0808*%
%ADD127R,0.0474X0.0375*%
%ADD128R,0.0356X0.0415*%
%ADD129R,0.0730X0.0730*%
%ADD130R,0.0454X0.0395*%
%ADD131R,0.0316X0.0690*%
%ADD132R,0.0930X0.1160*%
%ADD133O,0.0316X0.0493*%
%ADD134R,0.0316X0.0493*%
%ADD135R,0.0533X0.0769*%
%ADD136R,0.0395X0.0454*%
%ADD137R,0.0572X0.1123*%
%ADD138R,0.0612X0.0513*%
%ADD139R,0.0552X0.0415*%
D99*
X65008Y47250D02*
D03*
X64260D02*
D03*
X65008Y45920D02*
D03*
X64260D02*
D03*
X67992Y33248D02*
D03*
X67244D02*
D03*
X65335D02*
D03*
X64587D02*
D03*
X62185D02*
D03*
X61437D02*
D03*
D100*
X84624Y49181D02*
D03*
Y47646D02*
D03*
D101*
X55944Y48856D02*
D03*
X54944D02*
D03*
X55980Y47293D02*
D03*
X54980D02*
D03*
X36417Y71575D02*
D03*
X81473Y36287D02*
D03*
X81520Y44162D02*
D03*
X81544Y51872D02*
D03*
X46457Y74606D02*
D03*
X43701D02*
D03*
X57756Y63386D02*
D03*
D102*
X49831Y49674D02*
D03*
X87609Y52204D02*
D03*
X48308Y49674D02*
D03*
X71260Y33169D02*
D03*
X75197D02*
D03*
X65901Y36709D02*
D03*
X50351Y44582D02*
D03*
X51937Y43432D02*
D03*
X51988Y41652D02*
D03*
X66534Y61161D02*
D03*
X55412Y61211D02*
D03*
X87609Y44075D02*
D03*
X48840Y46946D02*
D03*
D103*
X70642Y58993D02*
D03*
X82453D02*
D03*
X41732Y57929D02*
D03*
X47732D02*
D03*
Y66929D02*
D03*
X71221Y51777D02*
D03*
Y46777D02*
D03*
Y43942D02*
D03*
Y36816D02*
D03*
X32283Y61024D02*
D03*
X63677Y68110D02*
D03*
X59874D02*
D03*
X61776D02*
D03*
D104*
X39370Y72441D02*
D03*
X78422Y36287D02*
D03*
X78469Y44162D02*
D03*
X78492Y51872D02*
D03*
X63661Y63386D02*
D03*
D105*
X42783Y72157D02*
D03*
D106*
X46063D02*
D03*
D107*
X69223Y42521D02*
D03*
Y40383D02*
D03*
D108*
Y38245D02*
D03*
D109*
X74832Y69162D02*
D03*
X68533D02*
D03*
D110*
X41732Y66929D02*
D03*
X32283Y70866D02*
D03*
D111*
X70108Y76642D02*
D03*
X85069Y60894D02*
D03*
D112*
X69300Y50130D02*
D03*
D113*
Y48130D02*
D03*
D114*
X87589Y49285D02*
D03*
Y47316D02*
D03*
X52657Y34449D02*
D03*
X50689D02*
D03*
X39764Y76487D02*
D03*
X37795D02*
D03*
X35827D02*
D03*
D115*
X50984Y37795D02*
D03*
D116*
X51968D02*
D03*
D117*
X61781Y42908D02*
D03*
X63356D02*
D03*
X46457Y77559D02*
D03*
X43701D02*
D03*
D118*
X36614Y68504D02*
D03*
X52756Y77309D02*
D03*
D119*
X36614Y59646D02*
D03*
X52756Y68451D02*
D03*
D120*
X57972Y68110D02*
D03*
D121*
X64449Y58425D02*
D03*
D122*
X56575D02*
D03*
D123*
X88800Y76822D02*
D03*
X32232Y76822D02*
D03*
X88800Y33600D02*
D03*
X32531D02*
D03*
D124*
X73310Y56379D02*
D03*
Y56753D02*
D03*
X72890Y56379D02*
D03*
X72509D02*
D03*
X72890Y56774D02*
D03*
X72514Y56778D02*
D03*
X67283Y56685D02*
D03*
X84174Y49385D02*
D03*
X84550Y49380D02*
D03*
X84170Y48986D02*
D03*
X84550D02*
D03*
X84970Y49360D02*
D03*
Y48986D02*
D03*
X67659Y56680D02*
D03*
X67278Y56285D02*
D03*
X67659D02*
D03*
X68079Y56660D02*
D03*
Y56285D02*
D03*
X46206Y45882D02*
D03*
D125*
X49165Y44187D02*
D03*
X48594D02*
D03*
X53569Y43892D02*
D03*
X54139D02*
D03*
X63546Y41111D02*
D03*
X62975D02*
D03*
D126*
X46231Y46951D02*
D03*
X47491D02*
D03*
D127*
X50864Y49486D02*
D03*
Y50057D02*
D03*
X46219Y49446D02*
D03*
Y50017D02*
D03*
X46976Y50021D02*
D03*
Y49451D02*
D03*
X54093Y45102D02*
D03*
Y44531D02*
D03*
X50391Y43397D02*
D03*
Y42826D02*
D03*
X51613Y50105D02*
D03*
Y49534D02*
D03*
D128*
X46353Y48835D02*
D03*
X47022D02*
D03*
D129*
X46974Y50867D02*
D03*
X46029D02*
D03*
D130*
X53363Y45092D02*
D03*
Y44580D02*
D03*
X52652Y45092D02*
D03*
Y44580D02*
D03*
X51390Y45092D02*
D03*
Y44580D02*
D03*
D131*
X49902Y48046D02*
D03*
X50402D02*
D03*
X50902D02*
D03*
X51402D02*
D03*
X49902Y45900D02*
D03*
X50402D02*
D03*
X50902D02*
D03*
X51402D02*
D03*
D132*
X61737Y44597D02*
D03*
X63477D02*
D03*
D133*
X60843Y44644D02*
D03*
X60469D02*
D03*
X60095D02*
D03*
X60843Y45707D02*
D03*
X60469D02*
D03*
D134*
X60095D02*
D03*
D135*
X72667Y33169D02*
D03*
X73789D02*
D03*
D136*
X63298Y36739D02*
D03*
X63810D02*
D03*
X62986Y41901D02*
D03*
X63498D02*
D03*
X57481Y35929D02*
D03*
X57993D02*
D03*
X48643Y45077D02*
D03*
X49155D02*
D03*
D137*
X62609Y39276D02*
D03*
X63712D02*
D03*
D138*
X63741Y37884D02*
D03*
X62619D02*
D03*
D139*
X61820Y47195D02*
D03*
X63021D02*
D03*
X63252Y46184D02*
D03*
X62052D02*
D03*
M02*
