G04 Layer_Physical_Order=1*
G04 Layer_Color=255*
%FSLAX24Y24*%
%MOIN*%
G70*
G01*
G75*
%ADD10R,0.1299X0.0532*%
%ADD11R,0.0394X0.0551*%
%ADD12R,0.1378X0.0630*%
%ADD13C,0.0200*%
%ADD14C,0.0600*%
%ADD15C,0.0400*%
%ADD16C,0.1000*%
%ADD17C,0.1600*%
%ADD18C,0.1500*%
%ADD19C,0.1200*%
%ADD20C,0.2000*%
%ADD21R,0.9069X0.2368*%
%ADD22R,0.1792X0.3643*%
%ADD23R,0.1200X0.1600*%
%ADD24R,0.1969X0.2300*%
%ADD25R,0.2362X0.4331*%
%ADD26R,0.3937X0.2756*%
%ADD27R,0.6693X0.1969*%
%ADD28R,0.1575X0.7480*%
%ADD29R,0.6594X0.1181*%
%ADD30R,0.3150X0.7087*%
%ADD31R,0.2559X0.3543*%
%ADD32R,0.4334X0.6299*%
%ADD33R,0.2756X0.2362*%
%ADD34R,0.1575X1.2992*%
%ADD35R,1.1024X0.7480*%
%ADD36R,1.4173X0.2384*%
%ADD37R,0.2365X1.4963*%
%ADD38R,0.2864X0.8465*%
%ADD39R,0.3043X0.8933*%
%ADD40R,0.4330X0.5237*%
%ADD41R,0.2479X0.4226*%
%ADD42R,0.2362X2.2034*%
%ADD43R,0.6693X0.2017*%
%ADD44R,0.5115X0.6919*%
%ADD45R,0.2362X0.5512*%
%ADD46R,0.2362X0.7890*%
%ADD47R,0.8679X0.1259*%
%ADD48R,1.3603X0.1657*%
%ADD49C,0.0787*%
%ADD50C,0.1063*%
%ADD51C,0.1181*%
%ADD52R,0.0787X0.0787*%
%ADD53C,0.1102*%
%ADD54R,0.1102X0.1102*%
%ADD55C,0.1197*%
%ADD56R,0.1197X0.1197*%
%ADD57C,0.1378*%
%ADD58R,0.1181X0.1181*%
%ADD59R,0.0697X0.1200*%
%ADD60O,0.0697X0.1200*%
%ADD61C,0.1024*%
%ADD62R,0.0472X0.0472*%
%ADD63C,0.0472*%
%ADD64R,0.0787X0.0787*%
%ADD65R,0.0630X0.0630*%
%ADD66C,0.0630*%
%ADD67R,0.1181X0.1181*%
%ADD68C,0.0965*%
%ADD69R,0.0965X0.0965*%
%ADD70C,0.2500*%
%ADD71C,0.0500*%
D10*
X67700Y58761D02*
D03*
Y56458D02*
D03*
X66104Y42939D02*
D03*
Y45243D02*
D03*
D11*
X58080Y55011D02*
D03*
X57332D02*
D03*
D12*
X72930Y55016D02*
D03*
Y56551D02*
D03*
D13*
X50935Y48366D02*
X51613Y49044D01*
X50935Y47633D02*
Y48366D01*
X50562Y47260D02*
X50935Y47633D01*
X50561Y47260D02*
X50562D01*
X50247Y46946D02*
X50561Y47260D01*
X48840Y46946D02*
X50247D01*
X55332Y43892D02*
X60442D01*
X46206Y45857D02*
X48578D01*
X57332Y54641D02*
Y55011D01*
X53536Y50845D02*
X57332Y54641D01*
X53536Y48959D02*
Y50845D01*
X50409Y45831D02*
X53536Y48959D01*
X50409Y44737D02*
Y45831D01*
X50261Y44589D02*
X50409Y44737D01*
D14*
X75197Y33169D02*
X77447D01*
D15*
X63221Y60352D02*
Y60840D01*
X58046Y55177D02*
X63221Y60352D01*
X58046Y54841D02*
Y55177D01*
D16*
X66091Y41084D02*
Y42899D01*
Y41084D02*
X66787Y40388D01*
X69218D02*
X69223Y40383D01*
X66787Y40388D02*
X69218D01*
X66783Y48130D02*
X69300D01*
X66091Y47438D02*
X66783Y48130D01*
X66091Y45365D02*
Y47438D01*
X67379Y56551D02*
X73367D01*
X69300Y50130D02*
Y54385D01*
X59874Y68110D02*
Y69949D01*
D17*
X37992Y59646D02*
Y60433D01*
X35827Y75522D02*
Y76487D01*
X32283Y71978D02*
X35827Y75522D01*
X51968Y72047D02*
X53543Y70472D01*
X46063Y72047D02*
X51968D01*
X39764Y62205D02*
Y65748D01*
X37992Y60433D02*
X39764Y62205D01*
X40048Y76487D02*
X40157Y76378D01*
X39764Y76487D02*
X40048D01*
X50053Y74606D02*
X52724Y77277D01*
X46457Y74606D02*
X50053D01*
X32283Y70866D02*
Y71978D01*
X53543Y70472D02*
X59350D01*
X59874Y69949D01*
D18*
X48425Y61811D02*
Y61975D01*
X45255Y65145D02*
X48425Y61975D01*
X45255Y65145D02*
Y69706D01*
X50787Y69685D02*
X52022Y68451D01*
X45276Y69685D02*
X50787D01*
X43701Y71260D02*
X45276Y69685D01*
X43701Y74606D02*
Y74803D01*
X52022Y68451D02*
X52756D01*
D19*
X40107Y77559D02*
X43701D01*
X46457D01*
D20*
X84646Y34055D02*
X89943Y39353D01*
Y49536D01*
D21*
X85230Y58652D02*
D03*
D22*
X64468Y57219D02*
D03*
D23*
X47300Y62600D02*
D03*
D24*
X45866Y63350D02*
D03*
D25*
X42913Y73032D02*
D03*
D26*
X37008Y60039D02*
D03*
D27*
X34055Y63976D02*
D03*
D28*
X36614Y68701D02*
D03*
D29*
X37156Y56496D02*
D03*
D30*
X32283Y59449D02*
D03*
D31*
X41732Y57677D02*
D03*
D32*
X47046Y59055D02*
D03*
D33*
X41535Y66929D02*
D03*
D34*
X39370Y71850D02*
D03*
D35*
X40956Y35647D02*
D03*
D36*
X82677Y73622D02*
D03*
D37*
X88586Y64977D02*
D03*
D38*
X57328Y64665D02*
D03*
D39*
X64513Y64431D02*
D03*
D40*
X56594Y59980D02*
D03*
D41*
X67235Y60486D02*
D03*
D42*
X78346Y43301D02*
D03*
D43*
X82480Y33292D02*
D03*
D44*
X88390Y52052D02*
D03*
D45*
X85039Y51575D02*
D03*
D46*
X74409Y70874D02*
D03*
D47*
X81504Y54881D02*
D03*
D48*
X70374Y54674D02*
D03*
D49*
X55944Y48856D02*
D03*
X54944D02*
D03*
X55980Y47293D02*
D03*
X54980D02*
D03*
X36417Y71575D02*
D03*
X81473Y36287D02*
D03*
X81520Y44162D02*
D03*
X81544Y51872D02*
D03*
X46457Y74606D02*
D03*
X43701D02*
D03*
X57756Y63386D02*
D03*
D50*
X49831Y49674D02*
D03*
X87609Y52204D02*
D03*
X48308Y49674D02*
D03*
X71260Y33169D02*
D03*
X75197D02*
D03*
X65901Y36709D02*
D03*
X50351Y44582D02*
D03*
X51937Y43432D02*
D03*
X51988Y41652D02*
D03*
X66534Y61161D02*
D03*
X55412Y61211D02*
D03*
X87609Y44075D02*
D03*
X48840Y46946D02*
D03*
D51*
X70642Y58993D02*
D03*
X82453D02*
D03*
X41732Y57929D02*
D03*
X47732D02*
D03*
Y66929D02*
D03*
X32283Y61024D02*
D03*
X63677Y68110D02*
D03*
X59874D02*
D03*
X61776D02*
D03*
D52*
X39370Y72441D02*
D03*
X78422Y36287D02*
D03*
X78469Y44162D02*
D03*
X78492Y51872D02*
D03*
X63661Y63386D02*
D03*
D53*
X42783Y72157D02*
D03*
D54*
X46063D02*
D03*
D55*
X69223Y42521D02*
D03*
Y40383D02*
D03*
D56*
Y38245D02*
D03*
D57*
X74832Y69162D02*
D03*
X68533D02*
D03*
D58*
X41732Y66929D02*
D03*
X32283Y70866D02*
D03*
D59*
X69300Y50130D02*
D03*
D60*
Y48130D02*
D03*
D61*
X87589Y49285D02*
D03*
Y47316D02*
D03*
X52657Y34449D02*
D03*
X50689D02*
D03*
X39764Y76487D02*
D03*
X37795D02*
D03*
X35827D02*
D03*
D62*
X50984Y37795D02*
D03*
D63*
X51968D02*
D03*
D64*
X46457Y77559D02*
D03*
X43701D02*
D03*
D65*
X36614Y68504D02*
D03*
X52756Y77309D02*
D03*
D66*
X36614Y59646D02*
D03*
X52756Y68451D02*
D03*
D67*
X57972Y68110D02*
D03*
D68*
X64449Y58425D02*
D03*
D69*
X56575D02*
D03*
D70*
X88800Y76822D02*
D03*
X32232Y76822D02*
D03*
X88800Y33600D02*
D03*
X32531D02*
D03*
D71*
X51613Y49044D02*
D03*
X60442Y43892D02*
D03*
X55332D02*
D03*
X73310Y56379D02*
D03*
Y56753D02*
D03*
X72890Y56379D02*
D03*
X72509D02*
D03*
X72890Y56774D02*
D03*
X72514Y56778D02*
D03*
X67283Y56685D02*
D03*
X84174Y49385D02*
D03*
X84550Y49380D02*
D03*
X84170Y48986D02*
D03*
X84550D02*
D03*
X84970Y49360D02*
D03*
Y48986D02*
D03*
X67659Y56680D02*
D03*
X67278Y56285D02*
D03*
X67659D02*
D03*
X68079Y56660D02*
D03*
Y56285D02*
D03*
X48578Y45857D02*
D03*
X46206Y45882D02*
D03*
M02*
