G04 Layer_Color=32896*
%FSLAX24Y24*%
%MOIN*%
G70*
G01*
G75*
%ADD90C,0.0100*%
%ADD91C,0.0079*%
%ADD94C,0.0080*%
%ADD136C,0.0236*%
%ADD137C,0.0098*%
%ADD138C,0.0039*%
%ADD139R,0.0306X0.1024*%
D90*
X60045Y46157D02*
G03*
X60045Y46157I-50J0D01*
G01*
X54230Y46702D02*
X56680D01*
Y47883D01*
X54230D02*
X56680D01*
X54230Y46702D02*
Y47883D01*
X54194Y48265D02*
X56644D01*
Y49446D01*
X54194D02*
X56644D01*
X54194Y48265D02*
Y49446D01*
X61358Y46578D02*
X61589D01*
X61352Y46571D02*
X61358Y46578D01*
X61352Y45784D02*
Y46571D01*
Y45784D02*
X61358Y45790D01*
X61589D01*
X63484Y46801D02*
X63714D01*
X63721Y46807D01*
Y47595D01*
X63714Y47588D02*
X63721Y47595D01*
X63484Y47588D02*
X63714D01*
D91*
X59908Y45082D02*
G03*
X59908Y45269I0J93D01*
G01*
Y45171D02*
X61030D01*
Y45179D01*
X59908D02*
X61030D01*
X59908Y45082D02*
Y45179D01*
Y45171D02*
Y45269D01*
X49668Y46343D02*
Y47603D01*
X51637Y46343D02*
Y47603D01*
X49668D02*
X51637D01*
X49668Y46343D02*
X51637D01*
X73051Y32864D02*
X73406D01*
X73051Y33474D02*
X73406D01*
X63003Y38793D02*
X63318D01*
X63003Y39758D02*
X63318D01*
X64615Y46157D02*
X64654D01*
X64615Y45684D02*
X64654D01*
X64615Y47486D02*
X64654D01*
X64615Y47014D02*
X64654D01*
X67598Y33484D02*
X67638D01*
X67598Y33012D02*
X67638D01*
X64941Y33484D02*
X64980D01*
X64941Y33012D02*
X64980D01*
X61791Y33484D02*
X61831D01*
X61791Y33012D02*
X61831D01*
X46648Y48707D02*
X46727D01*
X46648Y48963D02*
X46727D01*
X63715Y45790D02*
Y46184D01*
X61589Y45790D02*
X63715D01*
X61589D02*
Y46578D01*
X63715D01*
Y46184D02*
Y46578D01*
X61702Y43810D02*
Y43900D01*
X63513Y43810D02*
Y43900D01*
X61702Y45294D02*
Y45384D01*
X63513Y45294D02*
Y45384D01*
X61702Y43810D02*
X63513D01*
X61702Y45384D02*
X63513D01*
X62332Y42396D02*
X62858D01*
X62332Y42396D02*
X62332Y42396D01*
X62332Y43420D02*
X62858D01*
X62332Y42396D02*
Y43420D01*
X61358Y47195D02*
Y47588D01*
X63484D01*
Y46801D02*
Y47588D01*
X61358Y46801D02*
X63484D01*
X61358D02*
Y47195D01*
X83975Y48118D02*
Y48709D01*
X85274Y48118D02*
Y48709D01*
X46462Y51152D02*
X46541D01*
X46462Y50582D02*
X46541D01*
X46802Y46626D02*
X46920D01*
X46802Y47275D02*
X46920D01*
D94*
X84678Y46580D02*
X84744Y46514D01*
X84878D01*
X84944Y46580D01*
Y46847D01*
X84878Y46913D01*
X84744D01*
X84678Y46847D01*
X84545Y46913D02*
X84411D01*
X84478D01*
Y46514D01*
X84545Y46580D01*
X84211Y46847D02*
X84145Y46913D01*
X84011D01*
X83945Y46847D01*
Y46580D01*
X84011Y46514D01*
X84145D01*
X84211Y46580D01*
Y46647D01*
X84145Y46713D01*
X83945D01*
X52739Y49933D02*
X52672Y49999D01*
Y50132D01*
X52739Y50199D01*
X53006D01*
X53072Y50132D01*
Y49999D01*
X53006Y49933D01*
X52672Y49799D02*
Y49533D01*
X52739D01*
X53006Y49799D01*
X53072D01*
X45246Y47077D02*
X45313Y47143D01*
X45446D01*
X45512Y47077D01*
Y46810D01*
X45446Y46743D01*
X45313D01*
X45246Y46810D01*
X45113Y47077D02*
X45046Y47143D01*
X44913D01*
X44846Y47077D01*
Y47010D01*
X44913Y46943D01*
X44846Y46877D01*
Y46810D01*
X44913Y46743D01*
X45046D01*
X45113Y46810D01*
Y46877D01*
X45046Y46943D01*
X45113Y47010D01*
Y47077D01*
X45046Y46943D02*
X44913D01*
X47792Y44319D02*
X47859Y44385D01*
X47992D01*
X48059Y44319D01*
Y44052D01*
X47992Y43985D01*
X47859D01*
X47792Y44052D01*
X47659D02*
X47592Y43985D01*
X47459D01*
X47392Y44052D01*
Y44319D01*
X47459Y44385D01*
X47592D01*
X47659Y44319D01*
Y44252D01*
X47592Y44185D01*
X47392D01*
X45088Y49499D02*
X45154Y49432D01*
Y49299D01*
X45088Y49232D01*
X44821D01*
X44754Y49299D01*
Y49432D01*
X44821Y49499D01*
X44754Y49632D02*
Y49766D01*
Y49699D01*
X45154D01*
X45088Y49632D01*
Y49966D02*
X45154Y50032D01*
Y50165D01*
X45088Y50232D01*
X44821D01*
X44754Y50165D01*
Y50032D01*
X44821Y49966D01*
X45088D01*
X54061Y43386D02*
X54128Y43453D01*
X54261D01*
X54328Y43386D01*
Y43119D01*
X54261Y43053D01*
X54128D01*
X54061Y43119D01*
X53928Y43053D02*
X53794D01*
X53861D01*
Y43453D01*
X53928Y43386D01*
X53594Y43053D02*
X53461D01*
X53528D01*
Y43453D01*
X53594Y43386D01*
X52132Y49968D02*
X52066Y50035D01*
Y50168D01*
X52132Y50235D01*
X52399D01*
X52466Y50168D01*
Y50035D01*
X52399Y49968D01*
X52466Y49835D02*
Y49702D01*
Y49768D01*
X52066D01*
X52132Y49835D01*
X52466Y49235D02*
Y49502D01*
X52199Y49235D01*
X52132D01*
X52066Y49302D01*
Y49435D01*
X52132Y49502D01*
X45196Y51136D02*
X45263Y51202D01*
X45396D01*
X45463Y51136D01*
Y50869D01*
X45396Y50802D01*
X45263D01*
X45196Y50869D01*
X45063Y50802D02*
X44930D01*
X44996D01*
Y51202D01*
X45063Y51136D01*
X44730D02*
X44663Y51202D01*
X44530D01*
X44463Y51136D01*
Y51069D01*
X44530Y51002D01*
X44597D01*
X44530D01*
X44463Y50936D01*
Y50869D01*
X44530Y50802D01*
X44663D01*
X44730Y50869D01*
X55648Y44864D02*
X55581Y44931D01*
Y45064D01*
X55648Y45131D01*
X55914D01*
X55981Y45064D01*
Y44931D01*
X55914Y44864D01*
X55981Y44731D02*
Y44598D01*
Y44665D01*
X55581D01*
X55648Y44731D01*
X55981Y44198D02*
X55581D01*
X55781Y44398D01*
Y44131D01*
X50593Y42323D02*
X50659Y42390D01*
X50793D01*
X50859Y42323D01*
Y42057D01*
X50793Y41990D01*
X50659D01*
X50593Y42057D01*
X50460Y41990D02*
X50326D01*
X50393D01*
Y42390D01*
X50460Y42323D01*
X49860Y42390D02*
X50126D01*
Y42190D01*
X49993Y42257D01*
X49926D01*
X49860Y42190D01*
Y42057D01*
X49926Y41990D01*
X50060D01*
X50126Y42057D01*
X64750Y41274D02*
X64817Y41340D01*
X64950D01*
X65017Y41274D01*
Y41007D01*
X64950Y40940D01*
X64817D01*
X64750Y41007D01*
X64617Y40940D02*
X64483D01*
X64550D01*
Y41340D01*
X64617Y41274D01*
X64017Y41340D02*
X64150Y41274D01*
X64283Y41140D01*
Y41007D01*
X64217Y40940D01*
X64084D01*
X64017Y41007D01*
Y41074D01*
X64084Y41140D01*
X64283D01*
X65963Y47479D02*
Y47080D01*
X65763D01*
X65697Y47146D01*
Y47413D01*
X65763Y47479D01*
X65963D01*
X65563Y47080D02*
X65430D01*
X65497D01*
Y47479D01*
X65563Y47413D01*
X64750Y43110D02*
Y42710D01*
X64550D01*
X64483Y42777D01*
Y43043D01*
X64550Y43110D01*
X64750D01*
X64084Y42710D02*
X64350D01*
X64084Y42977D01*
Y43043D01*
X64150Y43110D01*
X64283D01*
X64350Y43043D01*
X64900Y44810D02*
Y44410D01*
X64700D01*
X64633Y44477D01*
Y44743D01*
X64700Y44810D01*
X64900D01*
X64500Y44743D02*
X64433Y44810D01*
X64300D01*
X64234Y44743D01*
Y44677D01*
X64300Y44610D01*
X64367D01*
X64300D01*
X64234Y44543D01*
Y44477D01*
X64300Y44410D01*
X64433D01*
X64500Y44477D01*
X66136Y46169D02*
Y45769D01*
X65936D01*
X65869Y45836D01*
Y46103D01*
X65936Y46169D01*
X66136D01*
X65536Y45769D02*
Y46169D01*
X65736Y45969D01*
X65469D01*
X57189Y49168D02*
X57322D01*
X57256D01*
Y48835D01*
X57322Y48768D01*
X57389D01*
X57456Y48835D01*
X57056Y48768D02*
X56923D01*
X56989D01*
Y49168D01*
X57056Y49102D01*
X51471Y44227D02*
X51604D01*
X51538D01*
Y43894D01*
X51604Y43828D01*
X51671D01*
X51738Y43894D01*
X51071Y43828D02*
X51338D01*
X51071Y44094D01*
Y44161D01*
X51138Y44227D01*
X51271D01*
X51338Y44161D01*
X57301Y47417D02*
X57434D01*
X57367D01*
Y47084D01*
X57434Y47017D01*
X57501D01*
X57567Y47084D01*
X57167Y47351D02*
X57101Y47417D01*
X56968D01*
X56901Y47351D01*
Y47284D01*
X56968Y47217D01*
X57034D01*
X56968D01*
X56901Y47151D01*
Y47084D01*
X56968Y47017D01*
X57101D01*
X57167Y47084D01*
X54438Y44820D02*
Y44953D01*
Y44886D01*
X54771D01*
X54837Y44953D01*
Y45020D01*
X54771Y45086D01*
X54837Y44486D02*
X54438D01*
X54637Y44686D01*
Y44420D01*
X45408Y48785D02*
Y48919D01*
Y48852D01*
X45742D01*
X45808Y48919D01*
Y48985D01*
X45742Y49052D01*
X45408Y48386D02*
Y48652D01*
X45608D01*
X45542Y48519D01*
Y48452D01*
X45608Y48386D01*
X45742D01*
X45808Y48452D01*
Y48585D01*
X45742Y48652D01*
X48099Y44875D02*
Y45275D01*
X47899D01*
X47832Y45209D01*
Y45075D01*
X47899Y45009D01*
X48099D01*
X47965D02*
X47832Y44875D01*
X47699D02*
X47566D01*
X47632D01*
Y45275D01*
X47699Y45209D01*
X62414Y33908D02*
Y34308D01*
X62214D01*
X62148Y34241D01*
Y34108D01*
X62214Y34041D01*
X62414D01*
X62281D02*
X62148Y33908D01*
X61748D02*
X62014D01*
X61748Y34174D01*
Y34241D01*
X61815Y34308D01*
X61948D01*
X62014Y34241D01*
X65562Y33910D02*
Y34310D01*
X65362D01*
X65295Y34243D01*
Y34110D01*
X65362Y34043D01*
X65562D01*
X65428D02*
X65295Y33910D01*
X65162Y34243D02*
X65095Y34310D01*
X64962D01*
X64895Y34243D01*
Y34176D01*
X64962Y34110D01*
X65028D01*
X64962D01*
X64895Y34043D01*
Y33976D01*
X64962Y33910D01*
X65095D01*
X65162Y33976D01*
X68220Y33917D02*
Y34316D01*
X68020D01*
X67953Y34250D01*
Y34117D01*
X68020Y34050D01*
X68220D01*
X68087D02*
X67953Y33917D01*
X67620D02*
Y34316D01*
X67820Y34117D01*
X67554D01*
X45358Y49407D02*
X45758D01*
Y49607D01*
X45691Y49673D01*
X45558D01*
X45491Y49607D01*
Y49407D01*
Y49540D02*
X45358Y49673D01*
X45758Y50073D02*
Y49807D01*
X45558D01*
X45624Y49940D01*
Y50007D01*
X45558Y50073D01*
X45424D01*
X45358Y50007D01*
Y49873D01*
X45424Y49807D01*
X55392Y45006D02*
X54992D01*
Y44806D01*
X55059Y44740D01*
X55192D01*
X55259Y44806D01*
Y45006D01*
Y44873D02*
X55392Y44740D01*
X54992Y44340D02*
X55059Y44473D01*
X55192Y44606D01*
X55326D01*
X55392Y44540D01*
Y44406D01*
X55326Y44340D01*
X55259D01*
X55192Y44406D01*
Y44606D01*
X58177Y36519D02*
Y36919D01*
X57977D01*
X57911Y36853D01*
Y36719D01*
X57977Y36653D01*
X58177D01*
X58044D02*
X57911Y36519D01*
X57777Y36919D02*
X57511D01*
Y36853D01*
X57777Y36586D01*
Y36519D01*
X66920Y47063D02*
Y47463D01*
X66721D01*
X66654Y47397D01*
Y47263D01*
X66721Y47197D01*
X66920D01*
X66787D02*
X66654Y47063D01*
X66521Y47130D02*
X66454Y47063D01*
X66321D01*
X66254Y47130D01*
Y47397D01*
X66321Y47463D01*
X66454D01*
X66521Y47397D01*
Y47330D01*
X66454Y47263D01*
X66254D01*
X67509Y45751D02*
Y46151D01*
X67309D01*
X67243Y46084D01*
Y45951D01*
X67309Y45884D01*
X67509D01*
X67376D02*
X67243Y45751D01*
X67110D02*
X66976D01*
X67043D01*
Y46151D01*
X67110Y46084D01*
X66776D02*
X66710Y46151D01*
X66576D01*
X66510Y46084D01*
Y45818D01*
X66576Y45751D01*
X66710D01*
X66776Y45818D01*
Y46084D01*
X64865Y41804D02*
Y42204D01*
X64665D01*
X64599Y42137D01*
Y42004D01*
X64665Y41937D01*
X64865D01*
X64732D02*
X64599Y41804D01*
X64466D02*
X64332D01*
X64399D01*
Y42204D01*
X64466Y42137D01*
X64132Y41804D02*
X63999D01*
X64066D01*
Y42204D01*
X64132Y42137D01*
X65219Y39046D02*
Y39446D01*
X65019D01*
X64952Y39380D01*
Y39246D01*
X65019Y39180D01*
X65219D01*
X65086D02*
X64952Y39046D01*
X64819D02*
X64686D01*
X64752D01*
Y39446D01*
X64819Y39380D01*
X64486D02*
X64419Y39446D01*
X64286D01*
X64219Y39380D01*
Y39313D01*
X64286Y39246D01*
X64353D01*
X64286D01*
X64219Y39180D01*
Y39113D01*
X64286Y39046D01*
X64419D01*
X64486Y39113D01*
X65146Y36665D02*
Y37065D01*
X64946D01*
X64879Y36998D01*
Y36865D01*
X64946Y36798D01*
X65146D01*
X65013D02*
X64879Y36665D01*
X64746D02*
X64613D01*
X64679D01*
Y37065D01*
X64746Y36998D01*
X64213Y36665D02*
Y37065D01*
X64413Y36865D01*
X64146D01*
X74045Y33910D02*
Y34310D01*
X73845D01*
X73778Y34244D01*
Y34110D01*
X73845Y34044D01*
X74045D01*
X73912D02*
X73778Y33910D01*
X73645D02*
X73512D01*
X73579D01*
Y34310D01*
X73645Y34244D01*
X73045Y34310D02*
X73179Y34244D01*
X73312Y34110D01*
Y33977D01*
X73245Y33910D01*
X73112D01*
X73045Y33977D01*
Y34044D01*
X73112Y34110D01*
X73312D01*
X51827Y47170D02*
X52161D01*
X52227Y47103D01*
Y46970D01*
X52161Y46903D01*
X51827D01*
X52227Y46770D02*
Y46637D01*
Y46703D01*
X51827D01*
X51894Y46770D01*
X59600Y45344D02*
Y45010D01*
X59534Y44944D01*
X59400D01*
X59334Y45010D01*
Y45344D01*
X58934Y44944D02*
X59200D01*
X58934Y45210D01*
Y45277D01*
X59000Y45344D01*
X59134D01*
X59200Y45277D01*
X64940Y38031D02*
Y37631D01*
X64740D01*
X64673Y37698D01*
Y37964D01*
X64740Y38031D01*
X64940D01*
X64540D02*
X64273D01*
Y37964D01*
X64540Y37698D01*
Y37631D01*
D136*
X51361Y46737D02*
G03*
X51361Y46737I-118J0D01*
G01*
D137*
X51786Y45900D02*
G03*
X51786Y45900I-49J0D01*
G01*
X63853Y45353D02*
G03*
X63853Y45353I-49J0D01*
G01*
X61220Y42908D02*
G03*
X61220Y42908I-49J0D01*
G01*
D138*
X63990Y37524D02*
G03*
X63990Y37524I-20J0D01*
G01*
D139*
X62494Y42908D02*
D03*
M02*
