M48
;Layer_Color=9474304
;FILE_FORMAT=2:4
INCH,LZ
;TYPE=PLATED
T1F00S00C0.0276
T2F00S00C0.0280
T3F00S00C0.0315
T4F00S00C0.0354
T5F00S00C0.0394
T6F00S00C0.0394
T7F00S00C0.0394
T8F00S00C0.0500
T9F00S00C0.0512
T10F00S00C0.0551
T11F00S00C0.0571
T12F00S00C0.0591
T13F00S00C0.0669
T14F00S00C0.0787
T15F00S00C0.0799
T16F00S00C0.1500
%
T01
X050984Y037795
X051968
T02
X046206Y045882
X048578Y045857
X055332Y043892
X060442
X08417Y048986
X08455
Y04938
X084174Y049385
X08497Y04936
Y048986
X07331Y056379
Y056753
X07289Y056774
X072514Y056778
X072509Y056379
X07289
X068079Y056285
Y05666
X067659Y05668
X067283Y056685
X067278Y056285
X067659
X051613Y049044
T03
X036614Y059646
Y068504
X052756Y068451
Y077309
T04
X043701Y074606
X046457
Y077559
X043701
T05
X036417Y071575
X03937Y072441
T06
X05498Y047293
X05598
X055944Y048856
X054944
T07
X078422Y036287
X081473
X08152Y044162
X078469
X078492Y051872
X081544
X057756Y063386
X063661
T08
X0693Y04813
Y05013
T09
X050689Y034449
X052657
X087589Y047316
Y049285
X039764Y076487
X037795
X035827
T10
X032283Y061024
Y070866
X042783Y072157
X046063
T11
X064449Y058425
X056575
T12
X047732Y057929
X041732
Y066929
X047732
X057972Y06811
X059874
X061776
X063677
X072591Y066182
Y07319
X084591
Y066182
T13
X051988Y041652
X051937Y043432
X050351Y044582
X065901Y036709
X07126Y033169
X075197
X087609Y044075
Y052204
X066534Y061161
X055412Y061211
X049831Y049674
X048308
X04884Y046946
T14
X071221Y036816
Y043942
Y046777
X082453Y058993
X070642
X071221Y051777
T15
X069223Y038245
Y040383
Y042521
T16
X032531Y0336
X0888
X032232Y076822
X0888Y076822
M30
